<svg width="292" height="73" viewBox="0 0 292 73" fill="none" xmlns="http://www.w3.org/2000/svg">
<path d="M93.5786 58.284C91.6039 58.284 89.8186 57.9459 88.2226 57.2696C86.6536 56.5934 85.4093 55.6195 84.4896 54.3481C83.5698 53.0767 83.0964 51.5754 83.0694 49.8442H89.1558C89.237 51.0074 89.6427 51.9271 90.3731 52.6034C91.1305 53.2796 92.1585 53.6178 93.4569 53.6178C94.7824 53.6178 95.8239 53.3067 96.5813 52.6845C97.3387 52.0353 97.7174 51.1967 97.7174 50.1688C97.7174 49.3302 97.4604 48.6404 96.9465 48.0994C96.4325 47.5584 95.7833 47.1391 94.9988 46.8415C94.2414 46.5169 93.1864 46.1653 91.8339 45.7865C89.9944 45.2455 88.4931 44.718 87.3299 44.2041C86.1938 43.6631 85.2064 42.8651 84.3678 41.8101C83.5563 40.728 83.1505 39.2943 83.1505 37.509C83.1505 35.8318 83.5698 34.3711 84.4084 33.1267C85.247 31.8824 86.4237 30.9356 87.9385 30.2864C89.4534 29.6101 91.1846 29.272 93.1323 29.272C96.0538 29.272 98.4207 29.9888 100.233 31.4225C102.073 32.8292 103.087 34.8039 103.276 37.3467H97.0276C96.9735 36.3728 96.5542 35.5748 95.7698 34.9527C95.0123 34.3035 93.9979 33.9788 92.7265 33.9788C91.6175 33.9788 90.7248 34.2629 90.0485 34.8309C89.3993 35.399 89.0747 36.2241 89.0747 37.3061C89.0747 38.0635 89.3181 38.6992 89.8051 39.2132C90.319 39.7001 90.9412 40.1059 91.6716 40.4305C92.429 40.728 93.484 41.0797 94.8365 41.4855C96.676 42.0265 98.1773 42.5675 99.3405 43.1085C100.504 43.6495 101.505 44.4611 102.343 45.5431C103.182 46.6251 103.601 48.0453 103.601 49.8036C103.601 51.3184 103.209 52.7251 102.424 54.0235C101.64 55.322 100.49 56.3634 98.9753 57.1479C97.4604 57.9053 95.6616 58.284 93.5786 58.284ZM107.065 46.7604C107.065 44.434 107.539 42.4052 108.485 40.6739C109.432 38.9156 110.744 37.5631 112.421 36.6163C114.098 35.6425 116.019 35.1556 118.183 35.1556C120.969 35.1556 123.269 35.8589 125.081 37.2655C126.921 38.6451 128.151 40.5928 128.773 43.1085H122.646C122.322 42.1347 121.767 41.3773 120.983 40.8362C120.225 40.2682 119.279 39.9841 118.143 39.9841C116.519 39.9841 115.235 40.5793 114.288 41.7695C113.341 42.9327 112.868 44.5963 112.868 46.7604C112.868 48.8974 113.341 50.561 114.288 51.7513C115.235 52.9144 116.519 53.496 118.143 53.496C120.442 53.496 121.943 52.4681 122.646 50.4122H128.773C128.151 52.8468 126.921 54.7809 125.081 56.2146C123.242 57.6483 120.942 58.3652 118.183 58.3652C116.019 58.3652 114.098 57.8918 112.421 56.945C110.744 55.9712 109.432 54.6186 108.485 52.8874C107.539 51.1291 107.065 49.0867 107.065 46.7604ZM145.595 35.1961C147.299 35.1961 148.814 35.5748 150.139 36.3323C151.465 37.0626 152.493 38.1582 153.223 39.6189C153.981 41.0526 154.359 42.7839 154.359 44.8127V58H148.679V45.5837C148.679 43.7983 148.232 42.4322 147.34 41.4855C146.447 40.5116 145.23 40.0247 143.688 40.0247C142.119 40.0247 140.875 40.5116 139.955 41.4855C139.062 42.4322 138.616 43.7983 138.616 45.5837V58H132.935V27.9736H138.616V38.3205C139.346 37.3467 140.32 36.5893 141.537 36.0482C142.755 35.4802 144.107 35.1961 145.595 35.1961ZM169.743 58.3652C167.579 58.3652 165.631 57.8918 163.9 56.945C162.169 55.9712 160.803 54.6051 159.802 52.8468C158.828 51.0885 158.341 49.0597 158.341 46.7604C158.341 44.4611 158.842 42.4322 159.843 40.6739C160.87 38.9156 162.264 37.5631 164.022 36.6163C165.78 35.6425 167.741 35.1556 169.905 35.1556C172.07 35.1556 174.031 35.6425 175.789 36.6163C177.547 37.5631 178.927 38.9156 179.928 40.6739C180.956 42.4322 181.47 44.4611 181.47 46.7604C181.47 49.0597 180.942 51.0885 179.887 52.8468C178.859 54.6051 177.453 55.9712 175.667 56.945C173.909 57.8918 171.934 58.3652 169.743 58.3652ZM169.743 53.4149C170.771 53.4149 171.731 53.1714 172.624 52.6845C173.544 52.1705 174.274 51.4131 174.815 50.4122C175.356 49.4114 175.627 48.1941 175.627 46.7604C175.627 44.6234 175.059 42.9868 173.923 41.8506C172.813 40.6875 171.447 40.1059 169.824 40.1059C168.201 40.1059 166.835 40.6875 165.726 41.8506C164.644 42.9868 164.103 44.6234 164.103 46.7604C164.103 48.8974 164.631 50.5475 165.686 51.7107C166.768 52.8468 168.12 53.4149 169.743 53.4149ZM191.317 27.9736V58H185.637V27.9736H191.317ZM195.469 46.6792C195.469 44.4069 195.915 42.3917 196.808 40.6334C197.728 38.875 198.959 37.5225 200.501 36.5757C202.07 35.6289 203.814 35.1556 205.735 35.1556C207.412 35.1556 208.873 35.4937 210.117 36.17C211.389 36.8462 212.403 37.6983 213.16 38.7263V35.5207H218.882V58H213.16V54.7133C212.43 55.7683 211.416 56.6475 210.117 57.3508C208.846 58.0271 207.372 58.3652 205.694 58.3652C203.801 58.3652 202.07 57.8783 200.501 56.9044C198.959 55.9306 197.728 54.5645 196.808 52.8062C195.915 51.0209 195.469 48.9785 195.469 46.6792ZM213.16 46.7604C213.16 45.3808 212.89 44.2041 212.349 43.2302C211.808 42.2294 211.077 41.4719 210.158 40.958C209.238 40.4169 208.251 40.1464 207.196 40.1464C206.141 40.1464 205.167 40.4034 204.274 40.9174C203.382 41.4314 202.651 42.1888 202.083 43.1897C201.542 44.1635 201.272 45.3267 201.272 46.6792C201.272 48.0318 201.542 49.222 202.083 50.2499C202.651 51.2508 203.382 52.0218 204.274 52.5628C205.194 53.1038 206.168 53.3743 207.196 53.3743C208.251 53.3743 209.238 53.1173 210.158 52.6034C211.077 52.0623 211.808 51.3049 212.349 50.3311C212.89 49.3302 213.16 48.14 213.16 46.7604ZM230.111 39.0103C230.841 37.8201 231.788 36.8868 232.951 36.2105C234.141 35.5343 235.494 35.1961 237.008 35.1961V41.1608H235.507C233.722 41.1608 232.369 41.5801 231.45 42.4187C230.557 43.2573 230.111 44.718 230.111 46.8009V58H224.43V35.5207H230.111V39.0103Z" fill="white"/>
<path d="M246.515 27.9736V58H240.835V27.9736H246.515ZM273.633 35.5207L259.716 68.631H253.67L258.539 57.4319L249.531 35.5207H255.901L261.704 51.2238L267.587 35.5207H273.633Z" fill="#5CE1E6"/>
<path d="M36.0678 0C28.9343 -8.50666e-08 21.9609 2.11534 16.0296 6.07852C10.0983 10.0417 5.47539 15.6747 2.7455 22.2652C0.0156126 28.8558 -0.698651 36.1078 0.693031 43.1043C2.08471 50.1007 5.51984 56.5274 10.564 61.5716C15.6082 66.6157 22.0348 70.0509 29.0313 71.4426C36.0278 72.8342 43.2798 72.12 49.8703 69.3901C56.4609 66.6602 62.0939 62.0373 66.0571 56.106C70.0202 50.1747 72.1356 43.2013 72.1356 36.0678L54.1017 36.0678C54.1017 39.6346 53.044 43.1212 51.0624 46.0869C49.0808 49.0526 46.2643 51.364 42.9691 52.7289C39.6738 54.0939 36.0478 54.451 32.5496 53.7552C29.0513 53.0593 25.838 51.3418 23.3159 48.8197C20.7938 46.2976 19.0763 43.0843 18.3804 39.586C17.6846 36.0878 18.0417 32.4618 19.4066 29.1665C20.7716 25.8713 23.083 23.0547 26.0487 21.0732C29.0144 19.0916 32.501 18.0339 36.0678 18.0339L36.0678 0Z" fill="white"/>
<path d="M36.0678 0C31.3313 -5.64821e-08 26.6412 0.932921 22.2652 2.7455C17.8893 4.55807 13.9132 7.21481 10.564 10.564C7.21481 13.9132 4.55807 17.8893 2.7455 22.2653C0.93292 26.6412 -7.1519e-07 31.3313 0 36.0678L18.0339 36.0678C18.0339 33.6996 18.5004 31.3545 19.4066 29.1665C20.3129 26.9785 21.6413 24.9905 23.3159 23.3159C24.9905 21.6413 26.9785 20.3129 29.1665 19.4066C31.3545 18.5004 33.6995 18.0339 36.0678 18.0339L36.0678 0Z" fill="#5CE1E6"/>
<circle cx="36.0678" cy="36.0678" r="11.2712" fill="#5CE1E6"/>
<path d="M47.339 36.0678C47.339 34.5877 47.0474 33.122 46.481 31.7545C45.9146 30.387 45.0844 29.1445 44.0377 28.0979C42.9911 27.0513 41.7486 26.221 40.3811 25.6546C39.0136 25.0882 37.5479 24.7966 36.0678 24.7966C34.5876 24.7966 33.122 25.0882 31.7545 25.6546C30.387 26.221 29.1445 27.0513 28.0979 28.0979C27.0512 29.1445 26.221 30.387 25.6546 31.7545C25.0881 33.122 24.7966 34.5877 24.7966 36.0678L36.0678 36.0678H47.339Z" fill="white"/>
</svg>
